# xmcd CD Database Entry
#
# Track frame offsets:
# 150
# 15436
# 29556
# 45582
# 61355
# 76950
# 94465
# 113922
# 128581
# 143279
# 159010
# 174725
# 192145
# 206414
# 225812
# 241105
# 263478
# 280620
# 300302
# 320195
#
# Disc length: 4515 seconds
#
# Revision: 1
# Processed by: cddbd v1.4PL0 Copyright (c) Steve Scherf et al.
# Submitted via: tcd 2.0b
#
DISCID=f111a114
DTITLE=Reba McEntire - Moments and Memories
DYEAR=1900
DGENRE=
TTITLE0=Whoever's In New England
TTITLE1=Little Rock
TTITLE2=Somebody Should Leave
TTITLE3=What Am I Gonna Do About You
TTITLE4=One Promise Too Late
TTITLE5=Is There Life Out There
TTITLE6=For My Broken Heart
TTITLE7=Walk On
TTITLE8=The Greatest Man I Never Knew
TTITLE9=Why Haven't I Heard From You
TTITLE10=And Still
TTITLE11=The Heart Is A Lonely Hunter
TTITLE12=It's Your Call
TTITLE13=The Night That The Lights Went Out In Georgia
TTITLE14=The Heart Won't Lie (Duet with Vince Gill)
TTITLE15=Fancy
TTITLE16=Rumor Has It
TTITLE17=Does He Love You ( Duet with Linda Davis)
TTITLE18=Misty Blue
TTITLE19=Sweet Dreams
EXTD=
EXTT0=
EXTT1=
EXTT2=
EXTT3=
EXTT4=
EXTT5=
EXTT6=
EXTT7=
EXTT8=
EXTT9=
EXTT10=
EXTT11=
EXTT12=
EXTT13=
EXTT14=
EXTT15=
EXTT16=
EXTT17=
EXTT18=
EXTT19=
PLAYORDER=
